PathFileType	4	(X/Y/Z)	E:\Qualisys_Data\Carbon_Farble_Plate\Data\Amateur_Runner\S1\T2\S1T2V11_c3d.trc
DataRate	CameraRate	NumFrames	NumMarkers	Units	OrigDataRate	OrigDataStartFrame	OrigNumFrames
200.000000	200.000000	4	39	mm	200.000000	117	312
Frame#	Time	LSHO			RSHO			LICST			RICST			LASIS			LHEEL			RASIS			LTROC			RTROC			SACR			LTH1			LSK4			LTH2			LTH3			RHM5			LSK2			LTH4			RTH1			LTOE			RTH2			RTH3			RTH4			LLEP			RLEP			LSK1			LSK3			RSK1			LHM5			RSK2			LFT1			RSK3			RSK4			LLME			RLME			RTOE			RHEEL			RFT1			RFT2			LFT2			
		X1	Y1	Z1	X2	Y2	Z2	X3	Y3	Z3	X4	Y4	Z4	X5	Y5	Z5	X6	Y6	Z6	X7	Y7	Z7	X8	Y8	Z8	X9	Y9	Z9	X10	Y10	Z10	X11	Y11	Z11	X12	Y12	Z12	X13	Y13	Z13	X14	Y14	Z14	X15	Y15	Z15	X16	Y16	Z16	X17	Y17	Z17	X18	Y18	Z18	X19	Y19	Z19	X20	Y20	Z20	X21	Y21	Z21	X22	Y22	Z22	X23	Y23	Z23	X24	Y24	Z24	X25	Y25	Z25	X26	Y26	Z26	X27	Y27	Z27	X28	Y28	Z28	X29	Y29	Z29	X30	Y30	Z30	X31	Y31	Z31	X32	Y32	Z32	X33	Y33	Z33	X34	Y34	Z34	X35	Y35	Z35	X36	Y36	Z36	X37	Y37	Z37	X38	Y38	Z38	X39	Y39	Z39	

118	0.585	-313.5608825683594	1478.071044921875	-547.9269409179688	-340.0810241699219	1491.266235351562	-215.7891998291016	-374.4353332519531	1025.46923828125	-508.3951721191406	-374.5130920410156	1047.089965820312	-207.221923828125	-331.771240234375	985.4617919921876	-480.3049621582031	-732.2836303710938	136.9305572509766	-373.5491333007812	-334.6979675292969	999.380859375	-216.7520751953125	-448.2042846679688	909.0986328125	-519.8514404296875	-436.6267395019531	906.6168212890624	-180.8033599853516	-493.2716979980469	1054.302612304688	-353.4554138183594	-334.2523193359375	747.1758422851562	-485.9100036621094	-637.4017333984375	278.1573486328125	-414.1893920898438	-414.0132751464844	747.2360229492188	-517.456787109375	-344.638916015625	645.3635864257812	-466.8399353027344	-413.3180847167969	148.1619110107422	-186.2494812011719	-579.3368530273438	353.8591613769531	-455.8559875488281	-428.2479858398438	651.4828491210938	-490.022705078125	-266.2764892578125	833.1748046875	-197.0360260009766	-491.0030517578125	59.45170593261719	-382.9267578125	-333.1458435058594	794.9319458007812	-171.7202911376953	-215.7154388427734	744.3759155273438	-196.1596374511719	-286.9778442382812	706.039306640625	-180.8876037597656	-419.1807861328125	497.88330078125	-445.0269775390625	-193.4634704589844	567.920654296875	-214.2698364257812	-512.92626953125	305.3528442382812	-438.9942626953125	-577.5719604492188	227.5912475585938	-430.7928161621094	-306.8074951171875	424.7215881347656	-199.8653564453125	-563.1704711914062	53.90626907348633	-453.4916076660156	-366.64697265625	477.71484375	-221.0833435058594	-732.1488037109375	104.0058135986328	-351.2012023925781	-370.0782470703125	347.2203674316406	-212.2547149658203	-426.6733093261719	398.9961547851562	-240.9109497070312	-666.9639892578125	152.1078948974609	-423.8124694824219	-480.2662048339844	273.2454833984375	-215.9257659912109	-345.6326293945312	125.2772979736328	-252.4736938476562	-553.12841796875	271.5857849121094	-266.2817077636719	-556.0764770507812	237.5825653076172	-294.8958435058594	-566.5084228515625	247.1634979248047	-242.2062530517578	-735.5001831054688	107.4431381225586	-405.4420776367188
119	0.59	-295.4251098632812	1482.18994140625	-546.5873413085938	-326.4478454589844	1494.9169921875	-215.0879974365234	-357.48388671875	1027.903930664062	-507.6773681640625	-358.1949768066406	1051.723022460938	-207.0213623046875	-314.5076904296875	988.1117553710938	-480.536376953125	-727.9522094726562	143.1193542480469	-375.1111145019531	-318.3536682128906	1003.881103515625	-217.4077453613281	-431.885986328125	912.1642456054688	-519.28271484375	-419.4010314941406	911.5361938476562	-179.862548828125	-476.3036499023438	1058.23974609375	-353.3417663574219	-321.3201904296875	749.1533203125	-484.0315856933594	-632.1368408203125	283.6200256347656	-414.3419494628906	-400.738525390625	750.1578369140625	-516.0813598632812	-334.156982421875	647.3470458984375	-464.7790832519531	-377.8635864257812	144.5675811767578	-185.466064453125	-573.6885986328125	358.7814331054688	-455.5272521972656	-417.0757751464844	655.011962890625	-489.0052490234375	-248.8545684814453	838.7318725585938	-197.1652984619141	-489.97802734375	59.40845489501953	-383.3163757324219	-315.5272216796875	800.2711181640625	-171.0497131347656	-197.9621887207031	750.4780883789062	-196.8968658447266	-268.666748046875	711.8408813476562	-180.9322357177734	-411.6167297363281	501.2615356445312	-444.2514953613281	-174.5479888916016	573.4773559570312	-214.4171600341797	-507.991943359375	309.8941955566406	-439.206298828125	-572.8008422851562	232.7147369384766	-431.5760498046875	-283.1660766601562	425.3979797363281	-199.5709075927734	-562.0267333984375	53.88128280639648	-453.274169921875	-344.8479309082031	475.9801940917969	-220.9630584716797	-729.295654296875	110.8496170043945	-352.4646301269531	-343.4986267089844	345.0746765136719	-211.8751373291016	-401.6784973144531	394.4098205566406	-240.9752960205078	-662.6729736328125	157.2301940917969	-424.8370361328125	-449.9843139648438	266.2049255371094	-215.3525390625	-309.3984680175781	124.3591232299805	-252.0377502441406	-523.22216796875	262.1701049804688	-266.0361328125	-523.925048828125	227.7533569335938	-294.5689392089844	-535.4266357421875	237.1906890869141	-240.8652954101562	-732.1871337890625	113.4175720214844	-406.2685241699219
120	0.595	-277.4296875	1486.469116210938	-545.4295654296875	-312.4386901855469	1498.661987304688	-214.7922515869141	-340.1945495605469	1030.43505859375	-506.9149475097656	-341.7747802734375	1056.523315429688	-207.0976409912109	-297.6381225585938	990.5435180664062	-479.6585388183594	-724.0534057617188	149.501708984375	-375.5553588867188	-299.061279296875	1008.842163085938	-219.4216461181641	-415.326171875	915.5939331054688	-518.5279541015625	-402.142333984375	915.8623046875	-178.9937286376953	-459.2772827148438	1061.665771484375	-353.3140258789062	-308.2461853027344	750.783447265625	-482.6003723144531	-626.8577880859375	289.2684326171875	-414.7718200683594	-387.331787109375	753.3176879882812	-515.380859375	-322.7880554199219	649.6233520507812	-463.0361328125	-342.3667602539062	140.6553955078125	-185.1612701416016	-567.7495727539062	364.2440795898438	-455.8121337890625	-405.5083923339844	658.139404296875	-488.2906188964844	-231.5540313720703	843.9235229492188	-197.5777130126953	-488.771728515625	59.19187545776367	-383.6982116699219	-297.7313537597656	805.1675415039062	-170.5222473144531	-179.7895050048828	756.3231201171875	-197.2347869873047	-250.3967895507812	717.1160278320312	-180.6628570556641	-403.6796875	505.2774963378906	-443.8672485351562	-156.7397155761719	578.640869140625	-214.7861785888672	-502.1359558105469	314.595947265625	-440.0627746582031	-567.809326171875	237.6776123046875	-432.9195251464844	-259.4933166503906	425.7344970703125	-199.3164367675781	-561.3575439453125	54.35181427001953	-453.3352355957031	-323.0526123046875	473.7989807128906	-220.7225799560547	-725.7347412109375	117.6054611206055	-352.8655700683594	-316.459228515625	343.4131469726562	-211.072998046875	-376.8480224609375	389.9515380859375	-240.5084075927734	-658.181396484375	162.3210296630859	-425.8105163574219	-419.729248046875	259.2218933105469	-215.1972503662109	-272.9285583496094	123.7728881835938	-251.9039916992188	-492.0716857910156	251.8657836914062	-265.0848083496094	-491.9306945800781	217.8018188476562	-293.8387756347656	-503.7047119140625	226.6085510253906	-240.4937438964844	-728.6455078125	119.7806930541992	-406.8663940429688
121	0.6	-259.0595397949219	1491.019287109375	-544.0653686523438	-298.3883666992188	1502.439453125	-214.2366180419922	-322.3230285644531	1033.325317382812	-506.1488037109375	-325.2573547363281	1061.107421875	-206.9047546386719	-278.96826171875	993.031982421875	-479.8513793945312	-719.7431030273438	155.0714263916016	-376.261474609375	-281.733154296875	1013.355407714844	-219.0713348388672	-398.8736267089844	919.068603515625	-517.8113403320312	-384.9166564941406	920.795166015625	-177.4463348388672	-442.201416015625	1065.876708984375	-352.9797973632812	-294.9551696777344	752.9944458007812	-481.4244079589844	-620.8698120117188	295.0860900878906	-415.39208984375	-373.9155883789062	757.0090942382812	-514.45166015625	-311.4898071289062	651.9675903320312	-461.3482666015625	-306.6852722167969	136.9355316162109	-185.0710601806641	-561.1793823242188	370.0184631347656	-456.5387573242188	-393.8045959472656	661.8107299804688	-487.2263793945312	-214.5028076171875	849.1858520507812	-197.7631225585938	-487.6701965332031	59.12530899047852	-383.9107971191406	-279.837890625	810.24609375	-171.1796722412109	-162.5004425048828	761.630126953125	-197.6443176269531	-232.2977294921875	722.3034057617188	-180.5349578857422	-394.9564208984375	509.0924987792969	-443.302734375	-139.0586395263672	583.4653930664062	-214.8236694335938	-495.8708190917969	319.3673095703125	-440.6408996582031	-562.15185546875	242.9180297851562	-433.8419189453125	-236.0184326171875	425.56103515625	-199.0263519287109	-560.2616577148438	55.27742385864258	-453.4560852050781	-301.8110046386719	470.94287109375	-220.7291259765625	-721.90380859375	123.6819076538086	-353.4247741699219	-289.4166564941406	341.1469116210938	-210.9196624755859	-351.8226623535156	385.042236328125	-240.5183410644531	-653.662841796875	168.2186126708984	-426.9230346679688	-388.8059692382812	251.9196014404297	-214.6843109130859	-236.9050140380859	123.1437377929688	-251.8004150390625	-461.1356201171875	242.1020050048828	-264.0860290527344	-459.86669921875	207.6855926513672	-292.9459533691406	-471.685791015625	216.0926361083984	-239.7627716064453	-725.2002563476562	125.3210601806641	-407.3409423828125
